<mxfile host="app.diagrams.net" modified="2024-01-13T07:34:54.382Z" agent="Mozilla/5.0 (X11; Linux x86_64) AppleWebKit/537.36 (KHTML, like Gecko) Chrome/120.0.0.0 Safari/537.36" version="22.1.17" etag="pdmSvhLpiWTWhZxDJg08" type="github">
  <diagram name="Page-1" id="j6r8cHy194DV3X2vW9xv">
    <mxGraphModel>
      <root>
        <mxCell id="0" />
        <mxCell id="1" parent="0" />
      </root>
    </mxGraphModel>
  </diagram>
</mxfile>
